<svg xmlns="http://www.w3.org/2000/svg" width="964" height="632" font-family="Iosevka,Menlo,Consolas,monospace" font-size="14">
<rect width="100%" height="100%" fill="#101318" rx="8"/>
<text x="10.0" y="23.0" fill="#7e8a9b" xml:space="preserve">┌─</text>
<text x="26.9" y="23.0" fill="#83d691" xml:space="preserve">&#160;affut.sh&#160;▌</text>
<text x="119.6" y="23.0" fill="#ffc45c" xml:space="preserve">&#160;11,7&#160;k&#160;écus&#160;</text>
<text x="229.2" y="23.0" fill="#7e8a9b" xml:space="preserve">·&#160;613&#160;captures&#160;</text>
<text x="355.6" y="23.0" fill="#7ac9ff" xml:space="preserve">·&#160;bestiaire&#160;22%&#160;</text>
<text x="490.5" y="23.0" fill="#7e8a9b" xml:space="preserve">──────────────────────────────────────────────────────┐</text>
<text x="10.0" y="40.0" fill="#7e8a9b" xml:space="preserve">│</text>
<text x="52.1" y="40.0" fill="#83d691" xml:space="preserve">♠</text>
<text x="128.0" y="40.0" fill="#83d691" xml:space="preserve">.</text>
<text x="178.6" y="40.0" fill="#83d691" xml:space="preserve">♣</text>
<text x="203.9" y="40.0" fill="#83d691" xml:space="preserve">.</text>
<text x="229.2" y="40.0" fill="#83d691" xml:space="preserve">♣♣.</text>
<text x="279.8" y="40.0" fill="#83d691" xml:space="preserve">♣</text>
<text x="296.6" y="40.0" fill="#83d691" xml:space="preserve">♣</text>
<text x="338.8" y="40.0" fill="#7e8a9b" xml:space="preserve">^</text>
<text x="439.9" y="40.0" fill="#7e8a9b" xml:space="preserve">/</text>
<text x="490.5" y="40.0" fill="#545f6e" xml:space="preserve">░</text>
<text x="549.5" y="40.0" fill="#7e8a9b" xml:space="preserve">∆</text>
<text x="617.0" y="40.0" fill="#7e8a9b" xml:space="preserve">∆</text>
<text x="684.4" y="40.0" fill="#bfe0ff" xml:space="preserve">*</text>
<text x="819.3" y="40.0" fill="#545f6e" xml:space="preserve">░</text>
<text x="895.1" y="40.0" fill="#bfe0ff" xml:space="preserve">*</text>
<text x="945.7" y="40.0" fill="#7e8a9b" xml:space="preserve">│</text>
<text x="10.0" y="57.0" fill="#7e8a9b" xml:space="preserve">│</text>
<text x="85.9" y="57.0" fill="#83d691" xml:space="preserve">♣</text>
<text x="111.2" y="57.0" fill="#83d691" xml:space="preserve">.</text>
<text x="220.8" y="57.0" fill="#83d691" xml:space="preserve">♠♣</text>
<text x="414.6" y="57.0" fill="#7e8a9b" xml:space="preserve">▲</text>
<text x="473.6" y="57.0" fill="#7e8a9b" xml:space="preserve">/</text>
<text x="490.5" y="57.0" fill="#545f6e" xml:space="preserve">░</text>
<text x="498.9" y="57.0" fill="#7e8a9b" xml:space="preserve">▲</text>
<text x="608.5" y="57.0" fill="#7e8a9b" xml:space="preserve">^</text>
<text x="785.6" y="57.0" fill="#bfe0ff" xml:space="preserve">*</text>
<text x="819.3" y="57.0" fill="#545f6e" xml:space="preserve">░</text>
<text x="827.7" y="57.0" fill="#bfe0ff" xml:space="preserve">▲</text>
<text x="928.9" y="57.0" fill="#bfe0ff" xml:space="preserve">*</text>
<text x="945.7" y="57.0" fill="#7e8a9b" xml:space="preserve">│</text>
<rect x="144.9" y="61.0" width="674.4" height="17" fill="#1e232c"/>
<text x="10.0" y="74.0" fill="#7e8a9b" xml:space="preserve">│</text>
<text x="144.9" y="74.0" fill="#7e8a9b" xml:space="preserve">┌─</text>
<text x="161.7" y="74.0" fill="#ffc45c" xml:space="preserve">&#160;bestiaire&#160;</text>
<text x="254.5" y="74.0" fill="#7e8a9b" xml:space="preserve">──────────────────────────────────────────────────────────────────┐</text>
<text x="819.3" y="74.0" fill="#545f6e" xml:space="preserve">░</text>
<text x="836.1" y="74.0" fill="#bfe0ff" xml:space="preserve">*</text>
<text x="920.4" y="74.0" fill="#bfe0ff" xml:space="preserve">▲·</text>
<text x="945.7" y="74.0" fill="#7e8a9b" xml:space="preserve">│</text>
<rect x="144.9" y="78.0" width="674.4" height="17" fill="#1e232c"/>
<text x="10.0" y="91.0" fill="#7e8a9b" xml:space="preserve">│</text>
<text x="35.3" y="91.0" fill="#83d691" xml:space="preserve">.♠</text>
<text x="77.4" y="91.0" fill="#83d691" xml:space="preserve">♠</text>
<text x="144.9" y="91.0" fill="#7e8a9b" xml:space="preserve">│</text>
<text x="810.9" y="91.0" fill="#7e8a9b" xml:space="preserve">│</text>
<text x="819.3" y="91.0" fill="#545f6e" xml:space="preserve">░</text>
<text x="903.6" y="91.0" fill="#bfe0ff" xml:space="preserve">▲</text>
<text x="945.7" y="91.0" fill="#7e8a9b" xml:space="preserve">│</text>
<rect x="144.9" y="95.0" width="674.4" height="17" fill="#1e232c"/>
<text x="10.0" y="108.0" fill="#7e8a9b" xml:space="preserve">│</text>
<text x="43.7" y="108.0" fill="#83d691" xml:space="preserve">.</text>
<text x="69.0" y="108.0" fill="#83d691" xml:space="preserve">.</text>
<text x="111.2" y="108.0" fill="#83d691" xml:space="preserve">♠</text>
<text x="144.9" y="108.0" fill="#7e8a9b" xml:space="preserve">│</text>
<text x="153.3" y="108.0" fill="#c2cddc" xml:space="preserve">&#160;espèces&#160;22/98&#160;[███·········]&#160;&#160;shinies&#160;2/98&#160;[············]&#160;&#160;rang&#160;S&#160;1/98&#160;&#160;&#160;&#160;&#160;&#160;&#160;</text>
<text x="810.9" y="108.0" fill="#7e8a9b" xml:space="preserve">│</text>
<text x="819.3" y="108.0" fill="#545f6e" xml:space="preserve">░</text>
<text x="878.3" y="108.0" fill="#bfe0ff" xml:space="preserve">·</text>
<text x="945.7" y="108.0" fill="#7e8a9b" xml:space="preserve">│</text>
<rect x="144.9" y="112.0" width="674.4" height="17" fill="#1e232c"/>
<text x="10.0" y="125.0" fill="#7e8a9b" xml:space="preserve">│</text>
<text x="52.1" y="125.0" fill="#83d691" xml:space="preserve">♣</text>
<text x="77.4" y="125.0" fill="#83d691" xml:space="preserve">.</text>
<text x="119.6" y="125.0" fill="#83d691" xml:space="preserve">.</text>
<text x="144.9" y="125.0" fill="#7e8a9b" xml:space="preserve">│</text>
<text x="161.7" y="125.0" fill="#545f6e" xml:space="preserve">biome&#160;complet&#160;:&#160;+0,04&#160;chance&#160;·&#160;biome&#160;100%&#160;shiny&#160;:&#160;+5%&#160;vente&#160;—&#160;pour&#160;toujours</text>
<text x="810.9" y="125.0" fill="#7e8a9b" xml:space="preserve">│</text>
<text x="819.3" y="125.0" fill="#545f6e" xml:space="preserve">░</text>
<text x="945.7" y="125.0" fill="#7e8a9b" xml:space="preserve">│</text>
<rect x="144.9" y="129.0" width="674.4" height="17" fill="#1e232c"/>
<text x="10.0" y="142.0" fill="#7e8a9b" xml:space="preserve">│</text>
<text x="35.3" y="142.0" fill="#83d691" xml:space="preserve">♣♣</text>
<text x="69.0" y="142.0" fill="#83d691" xml:space="preserve">.</text>
<text x="111.2" y="142.0" fill="#83d691" xml:space="preserve">.♣</text>
<text x="136.4" y="142.0" fill="#83d691" xml:space="preserve">♣</text>
<text x="144.9" y="142.0" fill="#7e8a9b" xml:space="preserve">│</text>
<text x="810.9" y="142.0" fill="#7e8a9b" xml:space="preserve">│</text>
<text x="819.3" y="142.0" fill="#545f6e" xml:space="preserve">░</text>
<text x="945.7" y="142.0" fill="#7e8a9b" xml:space="preserve">│</text>
<rect x="144.9" y="146.0" width="674.4" height="17" fill="#1e232c"/>
<text x="10.0" y="159.0" fill="#7e8a9b" xml:space="preserve">│</text>
<text x="144.9" y="159.0" fill="#7e8a9b" xml:space="preserve">│</text>
<text x="161.7" y="159.0" fill="#7ac9ff" xml:space="preserve">──&#160;forêt&#160;—&#160;12/13&#160;</text>
<text x="305.1" y="159.0" fill="#545f6e" xml:space="preserve">────────────────────────────────────────</text>
<text x="810.9" y="159.0" fill="#7e8a9b" xml:space="preserve">│</text>
<text x="819.3" y="159.0" fill="#545f6e" xml:space="preserve">░</text>
<text x="945.7" y="159.0" fill="#7e8a9b" xml:space="preserve">│</text>
<rect x="144.9" y="163.0" width="16.9" height="17" fill="#1e232c"/>
<rect x="161.7" y="163.0" width="632.2" height="17" fill="#ffc45c"/>
<rect x="794.0" y="163.0" width="25.3" height="17" fill="#1e232c"/>
<text x="10.0" y="176.0" fill="#7e8a9b" xml:space="preserve">│</text>
<text x="26.9" y="176.0" fill="#83d691" xml:space="preserve">♣.</text>
<text x="144.9" y="176.0" fill="#7e8a9b" xml:space="preserve">│</text>
<text x="161.7" y="176.0" fill="#1a1e26" xml:space="preserve">├─&#160;(o.o)&#160;&#160;mulotin&#160;&#160;&#160;&#160;&#160;&#160;&#160;&#160;&#160;&#160;&#160;&#160;&#160;&#160;&#160;&#160;commun&#160;·&#160;pris&#160;×22&#160;&#160;&#160;&#160;&#160;&#160;&#160;&#160;&#160;[C]&#160;&#160;♂♀&#160;&#160;stock&#160;4</text>
<text x="810.9" y="176.0" fill="#7e8a9b" xml:space="preserve">│</text>
<text x="819.3" y="176.0" fill="#545f6e" xml:space="preserve">░</text>
<text x="895.1" y="176.0" fill="#d6a04b" xml:space="preserve">∙</text>
<text x="945.7" y="176.0" fill="#7e8a9b" xml:space="preserve">│</text>
<rect x="144.9" y="180.0" width="674.4" height="17" fill="#1e232c"/>
<text x="10.0" y="193.0" fill="#7e8a9b" xml:space="preserve">│</text>
<text x="43.7" y="193.0" fill="#83d691" xml:space="preserve">.</text>
<text x="69.0" y="193.0" fill="#83d691" xml:space="preserve">.</text>
<text x="144.9" y="193.0" fill="#7e8a9b" xml:space="preserve">│</text>
<text x="161.7" y="193.0" fill="#545f6e" xml:space="preserve">├─&#160;</text>
<text x="187.0" y="193.0" fill="#c2cddc" xml:space="preserve">~(°&gt;&#160;&#160;&#160;sourivole&#160;&#160;&#160;&#160;&#160;&#160;&#160;&#160;&#160;&#160;&#160;&#160;&#160;&#160;</text>
<text x="439.9" y="193.0" fill="#7e8a9b" xml:space="preserve">commun&#160;·&#160;pris&#160;×9&#160;&#160;&#160;&#160;&#160;&#160;&#160;&#160;&#160;&#160;[C]&#160;&#160;</text>
<text x="701.3" y="193.0" fill="#83d691" xml:space="preserve">♂♀&#160;&#160;</text>
<text x="735.0" y="193.0" fill="#d6a04b" xml:space="preserve">stock&#160;3</text>
<text x="810.9" y="193.0" fill="#7e8a9b" xml:space="preserve">│</text>
<text x="819.3" y="193.0" fill="#ff8585" xml:space="preserve">ert&#160;×&#160;╞</text>
<text x="912.0" y="193.0" fill="#d6a04b" xml:space="preserve">·</text>
<text x="945.7" y="193.0" fill="#7e8a9b" xml:space="preserve">│</text>
<rect x="144.9" y="197.0" width="674.4" height="17" fill="#1e232c"/>
<text x="10.0" y="210.0" fill="#7e8a9b" xml:space="preserve">│</text>
<text x="35.3" y="210.0" fill="#83d691" xml:space="preserve">♣</text>
<text x="136.4" y="210.0" fill="#83d691" xml:space="preserve">♣</text>
<text x="144.9" y="210.0" fill="#7e8a9b" xml:space="preserve">│</text>
<text x="161.7" y="210.0" fill="#545f6e" xml:space="preserve">├─&#160;</text>
<text x="187.0" y="210.0" fill="#7ae8ff" xml:space="preserve">.ø.&#160;&#160;&#160;&#160;</text>
<text x="246.0" y="210.0" fill="#c2cddc" xml:space="preserve">champillon&#160;&#160;&#160;&#160;&#160;&#160;&#160;&#160;&#160;&#160;&#160;&#160;&#160;</text>
<text x="439.9" y="210.0" fill="#7e8a9b" xml:space="preserve">commun&#160;·&#160;pris&#160;×3&#160;✦1&#160;&#160;&#160;&#160;&#160;&#160;&#160;[C]&#160;&#160;</text>
<text x="701.3" y="210.0" fill="#83d691" xml:space="preserve">♂♀&#160;&#160;</text>
<text x="735.0" y="210.0" fill="#d6a04b" xml:space="preserve">stock&#160;1+1</text>
<text x="810.9" y="210.0" fill="#7e8a9b" xml:space="preserve">│</text>
<text x="819.3" y="210.0" fill="#545f6e" xml:space="preserve">░</text>
<text x="844.6" y="210.0" fill="#d6a04b" xml:space="preserve">∙≈≈</text>
<text x="945.7" y="210.0" fill="#7e8a9b" xml:space="preserve">│</text>
<rect x="144.9" y="214.0" width="674.4" height="17" fill="#1e232c"/>
<text x="10.0" y="227.0" fill="#7e8a9b" xml:space="preserve">│</text>
<text x="43.7" y="227.0" fill="#83d691" xml:space="preserve">♠</text>
<text x="144.9" y="227.0" fill="#7e8a9b" xml:space="preserve">│</text>
<text x="161.7" y="227.0" fill="#545f6e" xml:space="preserve">├─&#160;</text>
<text x="187.0" y="227.0" fill="#c2cddc" xml:space="preserve">=ö=&#160;&#160;&#160;&#160;bourdonel&#160;&#160;&#160;&#160;&#160;&#160;&#160;&#160;&#160;&#160;&#160;&#160;&#160;&#160;</text>
<text x="439.9" y="227.0" fill="#7e8a9b" xml:space="preserve">commun&#160;·&#160;pris&#160;×19&#160;&#160;&#160;&#160;&#160;&#160;&#160;&#160;&#160;[C]&#160;&#160;</text>
<text x="701.3" y="227.0" fill="#83d691" xml:space="preserve">♂♀&#160;&#160;</text>
<text x="735.0" y="227.0" fill="#d6a04b" xml:space="preserve">stock&#160;7</text>
<text x="810.9" y="227.0" fill="#7e8a9b" xml:space="preserve">│</text>
<text x="819.3" y="227.0" fill="#545f6e" xml:space="preserve">░</text>
<text x="836.1" y="227.0" fill="#d6a04b" xml:space="preserve">∙</text>
<text x="937.3" y="227.0" fill="#d6a04b" xml:space="preserve">·</text>
<text x="945.7" y="227.0" fill="#7e8a9b" xml:space="preserve">│</text>
<rect x="144.9" y="231.0" width="674.4" height="17" fill="#1e232c"/>
<text x="10.0" y="244.0" fill="#7e8a9b" xml:space="preserve">│</text>
<text x="52.1" y="244.0" fill="#83d691" xml:space="preserve">♣</text>
<text x="144.9" y="244.0" fill="#7e8a9b" xml:space="preserve">│</text>
<text x="161.7" y="244.0" fill="#545f6e" xml:space="preserve">├─&#160;</text>
<text x="187.0" y="244.0" fill="#c2cddc" xml:space="preserve">(:&gt;&#160;&#160;&#160;&#160;hérissou&#160;&#160;&#160;&#160;&#160;&#160;&#160;&#160;&#160;&#160;&#160;&#160;&#160;&#160;&#160;</text>
<text x="439.9" y="244.0" fill="#7e8a9b" xml:space="preserve">commun&#160;·&#160;pris&#160;×27&#160;&#160;&#160;&#160;&#160;&#160;&#160;&#160;&#160;[C]&#160;&#160;</text>
<text x="701.3" y="244.0" fill="#83d691" xml:space="preserve">♂♀&#160;&#160;</text>
<text x="735.0" y="244.0" fill="#d6a04b" xml:space="preserve">stock&#160;7</text>
<text x="810.9" y="244.0" fill="#7e8a9b" xml:space="preserve">│</text>
<text x="819.3" y="244.0" fill="#545f6e" xml:space="preserve">░</text>
<text x="836.1" y="244.0" fill="#d6a04b" xml:space="preserve">∙≈</text>
<text x="945.7" y="244.0" fill="#7e8a9b" xml:space="preserve">│</text>
<rect x="144.9" y="248.0" width="674.4" height="17" fill="#1e232c"/>
<text x="10.0" y="261.0" fill="#7e8a9b" xml:space="preserve">│</text>
<text x="144.9" y="261.0" fill="#7e8a9b" xml:space="preserve">│</text>
<text x="161.7" y="261.0" fill="#545f6e" xml:space="preserve">├─&#160;</text>
<text x="187.0" y="261.0" fill="#83d691" xml:space="preserve">\|/&#160;&#160;&#160;&#160;cerfeuil&#160;&#160;&#160;&#160;&#160;&#160;&#160;&#160;&#160;&#160;&#160;&#160;&#160;&#160;&#160;</text>
<text x="439.9" y="261.0" fill="#7e8a9b" xml:space="preserve">peu&#160;commun&#160;·&#160;pris&#160;×10&#160;&#160;&#160;&#160;&#160;[C]&#160;&#160;</text>
<text x="701.3" y="261.0" fill="#83d691" xml:space="preserve">♂♀&#160;&#160;</text>
<text x="735.0" y="261.0" fill="#d6a04b" xml:space="preserve">stock&#160;2</text>
<text x="810.9" y="261.0" fill="#7e8a9b" xml:space="preserve">│</text>
<text x="819.3" y="261.0" fill="#545f6e" xml:space="preserve">░</text>
<text x="937.3" y="261.0" fill="#d6a04b" xml:space="preserve">∙</text>
<text x="945.7" y="261.0" fill="#7e8a9b" xml:space="preserve">│</text>
<rect x="144.9" y="265.0" width="674.4" height="17" fill="#1e232c"/>
<text x="10.0" y="278.0" fill="#7e8a9b" xml:space="preserve">│</text>
<text x="144.9" y="278.0" fill="#7e8a9b" xml:space="preserve">│</text>
<text x="161.7" y="278.0" fill="#545f6e" xml:space="preserve">├─&#160;</text>
<text x="187.0" y="278.0" fill="#83d691" xml:space="preserve">/\.&#160;&#160;&#160;&#160;renardou&#160;cendré&#160;&#160;&#160;&#160;&#160;&#160;&#160;&#160;</text>
<text x="439.9" y="278.0" fill="#7e8a9b" xml:space="preserve">peu&#160;commun&#160;·&#160;pris&#160;×14&#160;&#160;&#160;&#160;&#160;[C]&#160;&#160;</text>
<text x="701.3" y="278.0" fill="#83d691" xml:space="preserve">♂♀&#160;&#160;</text>
<text x="735.0" y="278.0" fill="#d6a04b" xml:space="preserve">stock&#160;5</text>
<text x="810.9" y="278.0" fill="#7e8a9b" xml:space="preserve">│</text>
<text x="886.7" y="278.0" fill="#d6a04b" xml:space="preserve">≈</text>
<text x="912.0" y="278.0" fill="#d6a04b" xml:space="preserve">∙</text>
<text x="945.7" y="278.0" fill="#7e8a9b" xml:space="preserve">│</text>
<rect x="144.9" y="282.0" width="674.4" height="17" fill="#1e232c"/>
<text x="10.0" y="295.0" fill="#7e8a9b" xml:space="preserve">│</text>
<text x="144.9" y="295.0" fill="#7e8a9b" xml:space="preserve">│</text>
<text x="161.7" y="295.0" fill="#545f6e" xml:space="preserve">├─&#160;</text>
<text x="187.0" y="295.0" fill="#83d691" xml:space="preserve">.w.&#160;&#160;&#160;&#160;papillotte&#160;&#160;&#160;&#160;&#160;&#160;&#160;&#160;&#160;&#160;&#160;&#160;&#160;</text>
<text x="439.9" y="295.0" fill="#7e8a9b" xml:space="preserve">peu&#160;commun&#160;·&#160;pris&#160;×25&#160;&#160;&#160;&#160;&#160;[B]&#160;&#160;</text>
<text x="701.3" y="295.0" fill="#83d691" xml:space="preserve">♂♀&#160;&#160;</text>
<text x="735.0" y="295.0" fill="#d6a04b" xml:space="preserve">stock&#160;2</text>
<text x="810.9" y="295.0" fill="#7e8a9b" xml:space="preserve">│</text>
<text x="819.3" y="295.0" fill="#545f6e" xml:space="preserve">░</text>
<text x="895.1" y="295.0" fill="#d6a04b" xml:space="preserve">∙</text>
<text x="912.0" y="295.0" fill="#d6a04b" xml:space="preserve">≈≈</text>
<text x="945.7" y="295.0" fill="#7e8a9b" xml:space="preserve">│</text>
<rect x="144.9" y="299.0" width="674.4" height="17" fill="#1e232c"/>
<text x="10.0" y="312.0" fill="#7e8a9b" xml:space="preserve">│</text>
<text x="144.9" y="312.0" fill="#7e8a9b" xml:space="preserve">│</text>
<text x="161.7" y="312.0" fill="#545f6e" xml:space="preserve">├─&#160;</text>
<text x="187.0" y="312.0" fill="#7ac9ff" xml:space="preserve">{|}&#160;&#160;&#160;&#160;sylvestre&#160;&#160;&#160;&#160;&#160;&#160;&#160;&#160;&#160;&#160;&#160;&#160;&#160;&#160;</text>
<text x="439.9" y="312.0" fill="#7e8a9b" xml:space="preserve">rare&#160;·&#160;pris&#160;×28&#160;&#160;&#160;&#160;&#160;&#160;&#160;&#160;&#160;&#160;&#160;[A]&#160;&#160;</text>
<text x="701.3" y="312.0" fill="#83d691" xml:space="preserve">♂♀&#160;&#160;</text>
<text x="735.0" y="312.0" fill="#d6a04b" xml:space="preserve">stock&#160;5</text>
<text x="810.9" y="312.0" fill="#7e8a9b" xml:space="preserve">│</text>
<text x="819.3" y="312.0" fill="#545f6e" xml:space="preserve">░</text>
<text x="853.0" y="312.0" fill="#d6a04b" xml:space="preserve">·</text>
<text x="903.6" y="312.0" fill="#d6a04b" xml:space="preserve">≈</text>
<text x="945.7" y="312.0" fill="#7e8a9b" xml:space="preserve">│</text>
<rect x="144.9" y="316.0" width="674.4" height="17" fill="#1e232c"/>
<text x="10.0" y="329.0" fill="#7e8a9b" xml:space="preserve">│</text>
<text x="43.7" y="329.0" fill="#5fb39b" xml:space="preserve">~</text>
<text x="144.9" y="329.0" fill="#7e8a9b" xml:space="preserve">│</text>
<text x="161.7" y="329.0" fill="#545f6e" xml:space="preserve">├─&#160;</text>
<text x="187.0" y="329.0" fill="#7ae8ff" xml:space="preserve">*.*&#160;&#160;&#160;&#160;</text>
<text x="246.0" y="329.0" fill="#7ac9ff" xml:space="preserve">lucioleau&#160;&#160;&#160;&#160;&#160;&#160;&#160;&#160;&#160;&#160;&#160;&#160;&#160;&#160;</text>
<text x="439.9" y="329.0" fill="#7e8a9b" xml:space="preserve">rare&#160;·&#160;pris&#160;×3&#160;✦1&#160;&#160;&#160;&#160;&#160;&#160;&#160;&#160;&#160;[C]&#160;&#160;</text>
<text x="701.3" y="329.0" fill="#83d691" xml:space="preserve">♂♀&#160;&#160;</text>
<text x="735.0" y="329.0" fill="#d6a04b" xml:space="preserve">stock&#160;3</text>
<text x="810.9" y="329.0" fill="#7e8a9b" xml:space="preserve">│</text>
<text x="819.3" y="329.0" fill="#545f6e" xml:space="preserve">░</text>
<text x="945.7" y="329.0" fill="#7e8a9b" xml:space="preserve">│</text>
<rect x="144.9" y="333.0" width="674.4" height="17" fill="#1e232c"/>
<text x="10.0" y="346.0" fill="#7e8a9b" xml:space="preserve">│</text>
<text x="26.9" y="346.0" fill="#5fb39b" xml:space="preserve">&quot;~</text>
<text x="52.1" y="346.0" fill="#5fb39b" xml:space="preserve">o</text>
<text x="119.6" y="346.0" fill="#f8fbff" xml:space="preserve">╡&#160;m</text>
<text x="144.9" y="346.0" fill="#7e8a9b" xml:space="preserve">│</text>
<text x="161.7" y="346.0" fill="#545f6e" xml:space="preserve">├─&#160;</text>
<text x="187.0" y="346.0" fill="#7ac9ff" xml:space="preserve">(-)&#160;&#160;&#160;&#160;taupinard&#160;&#160;&#160;&#160;&#160;&#160;&#160;&#160;&#160;&#160;&#160;&#160;&#160;&#160;</text>
<text x="439.9" y="346.0" fill="#7e8a9b" xml:space="preserve">rare&#160;·&#160;pris&#160;×14&#160;&#160;&#160;&#160;&#160;&#160;&#160;&#160;&#160;&#160;&#160;[B]&#160;&#160;</text>
<text x="701.3" y="346.0" fill="#83d691" xml:space="preserve">♂♀&#160;&#160;</text>
<text x="735.0" y="346.0" fill="#d6a04b" xml:space="preserve">stock&#160;7</text>
<text x="810.9" y="346.0" fill="#7e8a9b" xml:space="preserve">│</text>
<text x="819.3" y="346.0" fill="#d6a04b" xml:space="preserve">∙</text>
<text x="945.7" y="346.0" fill="#7e8a9b" xml:space="preserve">│</text>
<rect x="144.9" y="350.0" width="674.4" height="17" fill="#1e232c"/>
<text x="10.0" y="363.0" fill="#7e8a9b" xml:space="preserve">│</text>
<text x="77.4" y="363.0" fill="#5fb39b" xml:space="preserve">o</text>
<text x="119.6" y="363.0" fill="#5fb39b" xml:space="preserve">o</text>
<text x="128.0" y="363.0" fill="#d6a04b" xml:space="preserve">1&#160;</text>
<text x="144.9" y="363.0" fill="#7e8a9b" xml:space="preserve">│</text>
<text x="161.7" y="363.0" fill="#545f6e" xml:space="preserve">├─&#160;???&#160;&#160;&#160;&#160;—&#160;inconnu&#160;—&#160;&#160;&#160;&#160;&#160;&#160;&#160;&#160;&#160;&#160;&#160;&#160;épique&#160;&#160;&#160;&#160;&#160;&#160;&#160;</text>
<text x="810.9" y="363.0" fill="#7e8a9b" xml:space="preserve">│</text>
<text x="878.3" y="363.0" fill="#d6a04b" xml:space="preserve">·</text>
<text x="928.9" y="363.0" fill="#d6a04b" xml:space="preserve">·</text>
<text x="945.7" y="363.0" fill="#7e8a9b" xml:space="preserve">│</text>
<rect x="144.9" y="367.0" width="674.4" height="17" fill="#1e232c"/>
<text x="10.0" y="380.0" fill="#7e8a9b" xml:space="preserve">│</text>
<text x="43.7" y="380.0" fill="#5fb39b" xml:space="preserve">~</text>
<text x="144.9" y="380.0" fill="#7e8a9b" xml:space="preserve">│</text>
<text x="161.7" y="380.0" fill="#545f6e" xml:space="preserve">├─&#160;</text>
<text x="187.0" y="380.0" fill="#ffc45c" xml:space="preserve">\VV/&#160;&#160;&#160;grand&#160;cornu&#160;&#160;&#160;&#160;&#160;&#160;&#160;&#160;&#160;&#160;&#160;&#160;</text>
<text x="439.9" y="380.0" fill="#7e8a9b" xml:space="preserve">légendaire&#160;·&#160;pris&#160;×1&#160;&#160;&#160;&#160;&#160;&#160;</text>
<text x="659.1" y="380.0" fill="#ffc45c" xml:space="preserve">[S]&#160;&#160;</text>
<text x="701.3" y="380.0" fill="#7e8a9b" xml:space="preserve">♂·&#160;&#160;</text>
<text x="735.0" y="380.0" fill="#d6a04b" xml:space="preserve">stock&#160;1</text>
<text x="810.9" y="380.0" fill="#7e8a9b" xml:space="preserve">│</text>
<text x="945.7" y="380.0" fill="#7e8a9b" xml:space="preserve">│</text>
<rect x="144.9" y="384.0" width="674.4" height="17" fill="#1e232c"/>
<text x="10.0" y="397.0" fill="#7e8a9b" xml:space="preserve">│</text>
<text x="60.6" y="397.0" fill="#5fb39b" xml:space="preserve">&quot;</text>
<text x="128.0" y="397.0" fill="#5fb39b" xml:space="preserve">&quot;</text>
<text x="144.9" y="397.0" fill="#7e8a9b" xml:space="preserve">│</text>
<text x="810.9" y="397.0" fill="#7e8a9b" xml:space="preserve">│</text>
<text x="945.7" y="397.0" fill="#7e8a9b" xml:space="preserve">│</text>
<rect x="144.9" y="401.0" width="674.4" height="17" fill="#1e232c"/>
<text x="10.0" y="414.0" fill="#7e8a9b" xml:space="preserve">│</text>
<text x="52.1" y="414.0" fill="#5fb39b" xml:space="preserve">~</text>
<text x="94.3" y="414.0" fill="#5fb39b" xml:space="preserve">&quot;</text>
<text x="144.9" y="414.0" fill="#7e8a9b" xml:space="preserve">│</text>
<text x="161.7" y="414.0" fill="#7ac9ff" xml:space="preserve">──&#160;marais&#160;—&#160;7/11&#160;</text>
<text x="305.1" y="414.0" fill="#545f6e" xml:space="preserve">────────────────────────────────────────</text>
<text x="810.9" y="414.0" fill="#7e8a9b" xml:space="preserve">│</text>
<text x="945.7" y="414.0" fill="#7e8a9b" xml:space="preserve">│</text>
<rect x="144.9" y="418.0" width="674.4" height="17" fill="#1e232c"/>
<text x="10.0" y="431.0" fill="#7e8a9b" xml:space="preserve">│</text>
<text x="26.9" y="431.0" fill="#5fb39b" xml:space="preserve">o</text>
<text x="144.9" y="431.0" fill="#7e8a9b" xml:space="preserve">│</text>
<text x="161.7" y="431.0" fill="#545f6e" xml:space="preserve">├─&#160;</text>
<text x="187.0" y="431.0" fill="#c2cddc" xml:space="preserve">~o~&#160;&#160;&#160;&#160;vasouille&#160;&#160;&#160;&#160;&#160;&#160;&#160;&#160;&#160;&#160;&#160;&#160;&#160;&#160;</text>
<text x="439.9" y="431.0" fill="#7e8a9b" xml:space="preserve">commun&#160;·&#160;pris&#160;×13&#160;&#160;&#160;&#160;&#160;&#160;&#160;&#160;&#160;[B]&#160;&#160;</text>
<text x="701.3" y="431.0" fill="#83d691" xml:space="preserve">♂♀&#160;&#160;</text>
<text x="735.0" y="431.0" fill="#d6a04b" xml:space="preserve">stock&#160;5</text>
<text x="810.9" y="431.0" fill="#7e8a9b" xml:space="preserve">│</text>
<text x="819.3" y="431.0" fill="#545f6e" xml:space="preserve">░</text>
<text x="945.7" y="431.0" fill="#7e8a9b" xml:space="preserve">│</text>
<rect x="144.9" y="435.0" width="674.4" height="17" fill="#1e232c"/>
<text x="10.0" y="448.0" fill="#7e8a9b" xml:space="preserve">│</text>
<text x="119.6" y="448.0" fill="#5fb39b" xml:space="preserve">~o~</text>
<text x="144.9" y="448.0" fill="#7e8a9b" xml:space="preserve">│</text>
<text x="161.7" y="448.0" fill="#545f6e" xml:space="preserve">├─&#160;</text>
<text x="187.0" y="448.0" fill="#c2cddc" xml:space="preserve">(o)~&#160;&#160;&#160;crapotin&#160;&#160;&#160;&#160;&#160;&#160;&#160;&#160;&#160;&#160;&#160;&#160;&#160;&#160;&#160;</text>
<text x="439.9" y="448.0" fill="#7e8a9b" xml:space="preserve">commun&#160;·&#160;pris&#160;×21&#160;&#160;&#160;&#160;&#160;&#160;&#160;&#160;&#160;[C]&#160;&#160;</text>
<text x="701.3" y="448.0" fill="#83d691" xml:space="preserve">♂♀&#160;&#160;</text>
<text x="735.0" y="448.0" fill="#d6a04b" xml:space="preserve">stock&#160;5</text>
<text x="810.9" y="448.0" fill="#7e8a9b" xml:space="preserve">│</text>
<text x="819.3" y="448.0" fill="#545f6e" xml:space="preserve">░</text>
<text x="827.7" y="448.0" fill="#7a8ab0" xml:space="preserve">●</text>
<text x="945.7" y="448.0" fill="#7e8a9b" xml:space="preserve">│</text>
<rect x="144.9" y="452.0" width="674.4" height="17" fill="#1e232c"/>
<text x="10.0" y="465.0" fill="#7e8a9b" xml:space="preserve">│</text>
<text x="85.9" y="465.0" fill="#5fb39b" xml:space="preserve">~&quot;</text>
<text x="144.9" y="465.0" fill="#7e8a9b" xml:space="preserve">│</text>
<text x="161.7" y="465.0" fill="#545f6e" xml:space="preserve">├─&#160;</text>
<text x="187.0" y="465.0" fill="#c2cddc" xml:space="preserve">_@/&#160;&#160;&#160;&#160;limacet&#160;&#160;&#160;&#160;&#160;&#160;&#160;&#160;&#160;&#160;&#160;&#160;&#160;&#160;&#160;&#160;</text>
<text x="439.9" y="465.0" fill="#7e8a9b" xml:space="preserve">commun&#160;·&#160;pris&#160;×11&#160;&#160;&#160;&#160;&#160;&#160;&#160;&#160;&#160;[A]&#160;&#160;</text>
<text x="701.3" y="465.0" fill="#83d691" xml:space="preserve">♂♀&#160;&#160;</text>
<text x="735.0" y="465.0" fill="#d6a04b" xml:space="preserve">stock&#160;6</text>
<text x="810.9" y="465.0" fill="#7e8a9b" xml:space="preserve">│</text>
<text x="819.3" y="465.0" fill="#ff8585" xml:space="preserve">sses&#160;×&#160;╞</text>
<text x="895.1" y="465.0" fill="#7a8ab0" xml:space="preserve">▓</text>
<text x="945.7" y="465.0" fill="#7e8a9b" xml:space="preserve">│</text>
<rect x="144.9" y="469.0" width="674.4" height="17" fill="#1e232c"/>
<text x="10.0" y="482.0" fill="#7e8a9b" xml:space="preserve">│</text>
<text x="77.4" y="482.0" fill="#5fb39b" xml:space="preserve">o</text>
<text x="144.9" y="482.0" fill="#7e8a9b" xml:space="preserve">│</text>
<text x="161.7" y="482.0" fill="#545f6e" xml:space="preserve">├─&#160;</text>
<text x="187.0" y="482.0" fill="#c2cddc" xml:space="preserve">-=+&#160;&#160;&#160;&#160;moustiflard&#160;&#160;&#160;&#160;&#160;&#160;&#160;&#160;&#160;&#160;&#160;&#160;</text>
<text x="439.9" y="482.0" fill="#7e8a9b" xml:space="preserve">commun&#160;·&#160;pris&#160;×9&#160;&#160;&#160;&#160;&#160;&#160;&#160;&#160;&#160;&#160;[C]&#160;&#160;</text>
<text x="701.3" y="482.0" fill="#83d691" xml:space="preserve">♂♀&#160;&#160;</text>
<text x="735.0" y="482.0" fill="#d6a04b" xml:space="preserve">stock&#160;5</text>
<text x="810.9" y="482.0" fill="#7e8a9b" xml:space="preserve">│</text>
<text x="819.3" y="482.0" fill="#545f6e" xml:space="preserve">░</text>
<text x="844.6" y="482.0" fill="#7a8ab0" xml:space="preserve">●</text>
<text x="878.3" y="482.0" fill="#7a8ab0" xml:space="preserve">·</text>
<text x="912.0" y="482.0" fill="#7a8ab0" xml:space="preserve">·●</text>
<text x="945.7" y="482.0" fill="#7e8a9b" xml:space="preserve">│</text>
<rect x="144.9" y="486.0" width="674.4" height="17" fill="#1e232c"/>
<text x="10.0" y="499.0" fill="#7e8a9b" xml:space="preserve">│</text>
<text x="136.4" y="499.0" fill="#5fb39b" xml:space="preserve">&quot;</text>
<text x="144.9" y="499.0" fill="#7e8a9b" xml:space="preserve">│</text>
<text x="161.7" y="499.0" fill="#545f6e" xml:space="preserve">├─&#160;</text>
<text x="187.0" y="499.0" fill="#83d691" xml:space="preserve">(°°)&#160;&#160;&#160;grenouillard&#160;&#160;&#160;&#160;&#160;&#160;&#160;&#160;&#160;&#160;&#160;</text>
<text x="439.9" y="499.0" fill="#7e8a9b" xml:space="preserve">peu&#160;commun&#160;·&#160;pris&#160;×8&#160;&#160;&#160;&#160;&#160;&#160;[A]&#160;&#160;</text>
<text x="701.3" y="499.0" fill="#83d691" xml:space="preserve">♂♀&#160;&#160;</text>
<text x="735.0" y="499.0" fill="#d6a04b" xml:space="preserve">stock&#160;6</text>
<text x="810.9" y="499.0" fill="#7e8a9b" xml:space="preserve">│</text>
<text x="819.3" y="499.0" fill="#545f6e" xml:space="preserve">░</text>
<text x="844.6" y="499.0" fill="#7a8ab0" xml:space="preserve">▓</text>
<text x="869.9" y="499.0" fill="#7a8ab0" xml:space="preserve">·</text>
<text x="895.1" y="499.0" fill="#7a8ab0" xml:space="preserve">·</text>
<text x="912.0" y="499.0" fill="#7a8ab0" xml:space="preserve">●</text>
<text x="945.7" y="499.0" fill="#7e8a9b" xml:space="preserve">│</text>
<rect x="144.9" y="503.0" width="674.4" height="17" fill="#1e232c"/>
<text x="10.0" y="516.0" fill="#7e8a9b" xml:space="preserve">│</text>
<text x="102.7" y="516.0" fill="#5fb39b" xml:space="preserve">~~</text>
<text x="144.9" y="516.0" fill="#7e8a9b" xml:space="preserve">│</text>
<text x="161.7" y="516.0" fill="#545f6e" xml:space="preserve">├─&#160;</text>
<text x="187.0" y="516.0" fill="#83d691" xml:space="preserve">~~~o&#160;&#160;&#160;sangsurelle&#160;&#160;&#160;&#160;&#160;&#160;&#160;&#160;&#160;&#160;&#160;&#160;</text>
<text x="439.9" y="516.0" fill="#7e8a9b" xml:space="preserve">peu&#160;commun&#160;·&#160;pris&#160;×30&#160;&#160;&#160;&#160;&#160;[B]&#160;&#160;</text>
<text x="701.3" y="516.0" fill="#83d691" xml:space="preserve">♂♀&#160;&#160;</text>
<text x="735.0" y="516.0" fill="#d6a04b" xml:space="preserve">stock&#160;3</text>
<text x="810.9" y="516.0" fill="#7e8a9b" xml:space="preserve">│</text>
<text x="819.3" y="516.0" fill="#545f6e" xml:space="preserve">░</text>
<text x="895.1" y="516.0" fill="#7a8ab0" xml:space="preserve">·▓</text>
<text x="928.9" y="516.0" fill="#7a8ab0" xml:space="preserve">●</text>
<text x="945.7" y="516.0" fill="#7e8a9b" xml:space="preserve">│</text>
<rect x="144.9" y="520.0" width="674.4" height="17" fill="#1e232c"/>
<text x="10.0" y="533.0" fill="#7e8a9b" xml:space="preserve">│</text>
<text x="136.4" y="533.0" fill="#5fb39b" xml:space="preserve">~</text>
<text x="144.9" y="533.0" fill="#7e8a9b" xml:space="preserve">│</text>
<text x="161.7" y="533.0" fill="#545f6e" xml:space="preserve">├─&#160;</text>
<text x="187.0" y="533.0" fill="#83d691" xml:space="preserve">@~&#160;&#160;&#160;&#160;&#160;tourbillard&#160;&#160;&#160;&#160;&#160;&#160;&#160;&#160;&#160;&#160;&#160;&#160;</text>
<text x="439.9" y="533.0" fill="#7e8a9b" xml:space="preserve">peu&#160;commun&#160;·&#160;pris&#160;×25&#160;&#160;&#160;&#160;&#160;[A]&#160;&#160;</text>
<text x="701.3" y="533.0" fill="#83d691" xml:space="preserve">♂♀&#160;&#160;</text>
<text x="735.0" y="533.0" fill="#d6a04b" xml:space="preserve">stock&#160;8</text>
<text x="810.9" y="533.0" fill="#7e8a9b" xml:space="preserve">│</text>
<text x="819.3" y="533.0" fill="#545f6e" xml:space="preserve">░</text>
<text x="861.4" y="533.0" fill="#7a8ab0" xml:space="preserve">●</text>
<text x="920.4" y="533.0" fill="#7a8ab0" xml:space="preserve">·</text>
<text x="937.3" y="533.0" fill="#7a8ab0" xml:space="preserve">▒</text>
<text x="945.7" y="533.0" fill="#7e8a9b" xml:space="preserve">│</text>
<rect x="144.9" y="537.0" width="674.4" height="17" fill="#1e232c"/>
<text x="10.0" y="550.0" fill="#545f6e" xml:space="preserve">├──&#160;promenez-vou</text>
<text x="144.9" y="550.0" fill="#7e8a9b" xml:space="preserve">│</text>
<text x="810.9" y="550.0" fill="#7e8a9b" xml:space="preserve">│</text>
<text x="819.3" y="550.0" fill="#bfe0ff" xml:space="preserve">brume&#160;·&#160;jour&#160;</text>
<text x="928.9" y="550.0" fill="#545f6e" xml:space="preserve">──┤</text>
<rect x="144.9" y="554.0" width="674.4" height="17" fill="#1e232c"/>
<text x="10.0" y="567.0" fill="#7e8a9b" xml:space="preserve">│</text>
<text x="26.9" y="567.0" fill="#545f6e" xml:space="preserve">[20:17:26]&#160;</text>
<text x="119.6" y="567.0" fill="#7e8a9b" xml:space="preserve">mar└─</text>
<text x="161.7" y="567.0" fill="#545f6e" xml:space="preserve">&#160;↑↓&#160;naviguer&#160;·&#160;Entrée&#160;valider&#160;·&#160;Échap&#160;fermer&#160;</text>
<text x="541.1" y="567.0" fill="#7e8a9b" xml:space="preserve">─────────────────────</text>
<text x="718.1" y="567.0" fill="#545f6e" xml:space="preserve">&#160;1-26/118&#160;</text>
<text x="802.4" y="567.0" fill="#7e8a9b" xml:space="preserve">─┘</text>
<text x="945.7" y="567.0" fill="#7e8a9b" xml:space="preserve">│</text>
<text x="10.0" y="584.0" fill="#7e8a9b" xml:space="preserve">│</text>
<text x="26.9" y="584.0" fill="#545f6e" xml:space="preserve">[20:17:22]&#160;</text>
<text x="119.6" y="584.0" fill="#83d691" xml:space="preserve">bienvenue.&#160;un&#160;piège&#160;en&#160;bois&#160;vous&#160;attend&#160;en&#160;réserve&#160;—&#160;la&#160;forêt&#160;est&#160;à&#160;l&#x27;ouest.</text>
<text x="945.7" y="584.0" fill="#7e8a9b" xml:space="preserve">│</text>
<text x="10.0" y="601.0" fill="#7e8a9b" xml:space="preserve">│</text>
<text x="945.7" y="601.0" fill="#7e8a9b" xml:space="preserve">│</text>
<text x="10.0" y="618.0" fill="#7e8a9b" xml:space="preserve">└─</text>
<text x="26.9" y="618.0" fill="#545f6e" xml:space="preserve">&#160;zqsd/←↑↓→&#160;·&#160;Entrée&#160;·&#160;[v]ue&#160;[i]nvent.&#160;[b]estiaire&#160;[o]&#160;boutique&#160;[c]ontrats&#160;[l]abo&#160;[m]usée&#160;[e]nclos&#160;[t]rophées</text>
<text x="937.3" y="618.0" fill="#7e8a9b" xml:space="preserve">─┘</text>
</svg>